# xmcd CD database file
#
# Track frame offsets:
#	150
#	11857
#	24020
#	42680
#	62557
#	74120
#	89807
#	110522
#	126175
#	137785
#	149047
#	163017
#	177172
#	190395
#	208965
#	222692
#	242640
#	255057
#	269130
#	282507
#	295995
#	312212
#
# Disc length: 4304 seconds
#
# Revision: 3
# Processed by: cddbd v1.4PL0 Copyright (c) Steve Scherf et al.
# Submitted via: CDex 1.50beta8
#
DISCID=7210ce16
DTITLE=Sinatra Frank - Complete Reprise Studio Recordings Disc.5
DYEAR=1995
DGENRE=Easy Listening
TTITLE0=Nice Work If You can Get It
TTITLE1=Please Be Kind
TTITLE2=I Won't Dance
TTITLE3=Learnin' The Blues
TTITLE4=I'm Gonna Sit Right Down And Write Myself A Letter
TTITLE5=I Only Have Eyes For You
TTITLE6=My Kind Of Girl
TTITLE7=Pennies From Heaven
TTITLE8=(Love Is) The Tender Trap
TTITLE9=Looking At The World Thru Rose Colored Glasses
TTITLE10=Me And My Shadow
TTITLE11=Come Blow Your Horn
TTITLE12=Call Me Irresponsible
TTITLE13=Lost In The Stars
TTITLE14=My Heart Stood Still
TTITLE15=Ol' Man River
TTITLE16=This Nearly Was Mine
TTITLE17=You'll Never Walk Alone
TTITLE18=I Have Dreamed
TTITLE19=Bewitched
TTITLE20=California
TTITLE21=America The Beautiful
EXTD=YEAR: 1995
EXTT0=
EXTT1=
EXTT2=
EXTT3=
EXTT4=
EXTT5=
EXTT6=
EXTT7=
EXTT8=
EXTT9=
EXTT10=
EXTT11=
EXTT12=
EXTT13=
EXTT14=
EXTT15=
EXTT16=
EXTT17=
EXTT18=
EXTT19=
EXTT20=
EXTT21=
PLAYORDER=
